<svg width="25" height="25" viewBox="0 0 25 25" fill="none" xmlns="http://www.w3.org/2000/svg">
<g clip-path="url(#clip0_422_241)">
<path d="M9.03931 9.91895C7.59365 9.91895 6.41748 11.2147 6.41748 12.8074C6.41748 14.4 7.59365 15.6958 9.03931 15.6958C10.485 15.6958 11.6612 14.4 11.6612 12.8074C11.6612 11.2147 10.485 9.91895 9.03931 9.91895ZM9.03931 14.231C8.40137 14.231 7.88232 13.5923 7.88232 12.8074C7.88232 12.0224 8.40137 11.3838 9.03931 11.3838C9.67729 11.3838 10.1964 12.0224 10.1964 12.8074C10.1964 13.5923 9.67729 14.231 9.03931 14.231Z" fill="#383838"/>
<path d="M15.9605 9.91895C14.5148 9.91895 13.3386 11.2147 13.3386 12.8074C13.3386 14.4 14.5148 15.6958 15.9605 15.6958C17.4062 15.6958 18.5824 14.4 18.5824 12.8074C18.5824 11.2147 17.4062 9.91895 15.9605 9.91895ZM15.9605 14.231C15.3226 14.231 14.8035 13.5923 14.8035 12.8074C14.8035 12.0224 15.3226 11.3838 15.9605 11.3838C16.5985 11.3838 17.1175 12.0224 17.1175 12.8074C17.1175 13.5923 16.5985 14.231 15.9605 14.231Z" fill="#383838"/>
<path d="M24.9986 17.7039C24.9814 17.3942 24.5434 10.0692 21.7618 5.68745C21.7049 5.59785 21.6292 5.52163 21.54 5.46421C18.1005 3.24941 15.7577 3.25576 15.6597 3.25537C15.3756 3.25913 15.1309 3.42437 15.0127 3.66314L13.8311 5.92749C13.3909 5.89868 12.9465 5.88374 12.4998 5.88374C12.0531 5.88374 11.6087 5.89868 11.1685 5.92749L9.98825 3.66577C9.87052 3.42563 9.62507 3.25918 9.33986 3.25542C9.24128 3.25483 6.89875 3.24966 3.45969 5.46426C3.37048 5.52173 3.29474 5.5979 3.23786 5.6875C0.456218 10.0692 0.0181812 17.3942 0.000896026 17.7039C-0.00994382 17.898 0.0568531 18.0885 0.186589 18.2334C0.315593 18.3773 3.38 21.7446 7.61569 21.7446C7.63464 21.7446 7.65412 21.7445 7.67311 21.7444C7.89572 21.7428 8.10544 21.64 8.24318 21.4653L10.1969 18.9858C10.9473 19.0715 11.7181 19.1162 12.4998 19.1162C13.2815 19.1162 14.0523 19.0715 14.8026 18.9858L16.7564 21.4653C16.8941 21.64 17.1038 21.7428 17.3264 21.7444C17.3457 21.7445 17.3646 21.7446 17.3839 21.7446C21.6192 21.7446 24.684 18.3773 24.813 18.2334C24.9426 18.0885 25.0094 17.898 24.9986 17.7039ZM17.6818 20.2729L16.4603 18.7227C18.3196 18.3401 19.9885 17.6893 21.2912 16.8153C21.6271 16.5899 21.7168 16.1349 21.4914 15.799C21.2661 15.4631 20.8109 15.3733 20.4751 15.5988C18.5309 16.9033 15.6239 17.6513 12.4998 17.6513C9.37575 17.6513 6.46882 16.9033 4.52443 15.599C4.18845 15.3736 3.73351 15.4633 3.50817 15.7992C3.28283 16.1352 3.37248 16.5901 3.70842 16.8155C5.01115 17.6893 6.68 18.3402 8.53932 18.7227L7.31789 20.2728C4.45007 20.1397 2.16784 18.1342 1.48635 17.4687C1.60011 16.0495 2.19045 10.1963 4.38981 6.6084C6.54953 5.24512 8.17936 4.86597 8.90729 4.7606L9.60221 6.09219C7.96838 6.33076 6.43766 6.76919 5.13381 7.38306C4.76784 7.55532 4.61086 7.9917 4.78312 8.35772C4.95544 8.72363 5.39181 8.88057 5.75773 8.7084C7.62033 7.83149 10.0147 7.34858 12.4998 7.34858C14.985 7.34858 17.3794 7.83159 19.2419 8.70859C19.3427 8.75605 19.4488 8.77856 19.5534 8.77856C19.8282 8.77856 20.0917 8.62305 20.2166 8.35796C20.3888 7.99204 20.2319 7.55562 19.8659 7.3833C18.562 6.76939 17.0313 6.33086 15.3973 6.09229L16.0922 4.76069C16.8201 4.86606 18.45 5.24522 20.6098 6.6085C22.8067 10.1927 23.3989 16.052 23.5132 17.47C22.8334 18.137 20.5613 20.1408 17.6818 20.2729Z" fill="#383838"/>
</g>
<defs>
<clipPath id="clip0_422_241">
<rect width="25" height="25" fill="white"/>
</clipPath>
</defs>
</svg>
