<svg width="199" height="58" viewBox="0 0 199 58" fill="none" xmlns="http://www.w3.org/2000/svg">
<path d="M76.72 14.4V37.104C76.72 42.192 72.592 46.368 67.456 46.368C62.368 46.368 58.24 42.192 58.24 37.104V14.4H55.12V36.816C55.12 43.632 60.64 49.152 67.456 49.152C74.272 49.152 79.792 43.632 79.792 36.816V14.4H76.72ZM82.3975 48H85.7575L96.7975 21.12L107.838 48H111.198L96.7975 13.248L82.3975 48ZM125.363 29.232C121.091 27.984 116.723 26.736 116.723 23.328C116.723 19.104 120.851 16.32 125.267 16.32C129.203 16.32 131.699 18.144 133.571 21.024L136.403 19.68C134.627 16.224 130.643 13.248 125.267 13.248C118.595 13.248 113.507 17.76 113.507 23.616C113.507 28.272 119.171 30.864 124.739 32.4C128.963 33.552 133.907 35.472 133.907 39.168C133.907 43.824 128.963 46.08 124.451 46.08C120.515 46.08 117.251 43.392 115.379 40.176L112.403 41.616C114.755 45.888 119.171 49.152 124.451 49.152C131.507 49.152 137.027 45.264 137.027 39.168C137.027 33.12 131.075 30.912 125.363 29.232ZM139.679 48H143.039L154.079 21.12L165.119 48H168.479L154.079 13.248L139.679 48ZM172.542 14.4V48H175.614V33.456H186.51L193.806 48H197.166L189.63 32.928C193.374 31.632 196.062 28.08 196.062 23.904C196.062 18.672 191.79 14.4 186.51 14.4H172.542ZM175.614 17.184H186.222C189.966 17.184 192.942 20.208 192.942 23.904C192.942 27.648 189.966 30.624 186.222 30.624H175.614V17.184Z" fill="#383838"/>
<path fill-rule="evenodd" clip-rule="evenodd" d="M51.2576 53.9697L50.2273 55L20.8251 26.4249L22.5317 24.7183L51.2576 53.9697ZM18.6872 20.8035L16.5094 18.5858L14.661 20.4342L16.8901 22.6006L18.6872 20.8035ZM10.7512 12.7223L8.7673 14.7063L0 6.1856L2.1856 4L10.7512 12.7223Z" fill="#383838"/>
<path fill-rule="evenodd" clip-rule="evenodd" d="M37.0716 47.2372C33.1569 49.6613 28.4913 50.5875 23.9391 49.8349C19.248 49.0593 15.0166 46.557 12.0769 42.8198C9.13723 39.0827 7.70181 34.381 8.05287 29.6392C8.40392 24.8974 10.5161 20.4584 13.974 17.1949C17.432 13.9313 21.9857 12.0794 26.7399 12.0031C31.4941 11.9268 36.1049 13.6316 39.6658 16.7824C43.2268 19.9333 45.4803 24.3022 45.9834 29.0303C46.4325 33.2516 45.4574 37.4866 43.2376 41.0713L45.2998 43.1336C48.1056 38.8969 49.3566 33.8043 48.8166 28.7289C48.2383 23.2934 45.6476 18.2708 41.5539 14.6486C37.4602 11.0264 32.1596 9.06646 26.6942 9.15419C21.2287 9.24192 15.9938 11.3709 12.0184 15.1227C8.0431 18.8745 5.61498 23.9776 5.2114 29.4288C4.80783 34.8801 6.45799 40.2851 9.8375 44.5814C13.217 48.8777 18.0814 51.7544 23.4743 52.646C28.8673 53.5376 34.3987 52.3797 38.9812 49.3997L38.5109 48.6765L37.0716 47.2372Z" fill="#383838"/>
<path fill-rule="evenodd" clip-rule="evenodd" d="M31.4505 39.6139C29.6183 40.5558 27.5234 40.8896 25.474 40.5508C23.1008 40.1584 20.9603 38.8926 19.4731 37.002C17.986 35.1114 17.2598 32.733 17.4374 30.3342C17.615 27.9353 18.6835 25.6897 20.4328 24.0388C22.1822 22.3878 24.4858 21.451 26.8909 21.4123C29.2959 21.3737 31.6284 22.2362 33.4299 23.8301C35.2313 25.4241 36.3713 27.6343 36.6258 30.0261C36.8224 31.874 36.4795 33.727 35.656 35.3676L36.7222 36.4338C37.8284 34.4473 38.302 32.157 38.0591 29.8736C37.7665 27.1239 36.4559 24.5831 34.385 22.7507C32.3141 20.9183 29.6326 19.9268 26.8677 19.9712C24.1028 20.0155 21.4546 21.0926 19.4435 22.9905C17.4325 24.8885 16.2041 27.47 16 30.2277C15.7958 32.9854 16.6306 35.7197 18.3402 37.8931C20.0499 40.0665 22.5107 41.5218 25.2389 41.9729C27.7471 42.3876 30.3146 41.9258 32.5138 40.6772L31.4505 39.6139Z" fill="#383838"/>
</svg>
