<svg width="22" height="30" viewBox="0 0 22 30" fill="none" xmlns="http://www.w3.org/2000/svg">
<path d="M11.0001 0.390625C8.10641 0.393933 5.33222 1.5449 3.28609 3.59103C1.23997 5.63715 0.0890017 8.41134 0.0856934 11.305V18.695C0.0856934 21.5897 1.2356 24.3658 3.28244 26.4126C5.32928 28.4595 8.1054 29.6094 11.0001 29.6094C13.8947 29.6094 16.6709 28.4595 18.7177 26.4126C20.7645 24.3658 21.9144 21.5897 21.9144 18.695V11.305C21.9111 8.41134 20.7602 5.63715 18.714 3.59103C16.6679 1.5449 13.8937 0.393933 11.0001 0.390625ZM20.8207 18.695C20.8207 21.2996 19.786 23.7975 17.9443 25.6392C16.1026 27.481 13.6047 28.5156 11.0001 28.5156C8.39548 28.5156 5.89756 27.481 4.05584 25.6392C2.21411 23.7975 1.17944 21.2996 1.17944 18.695V11.305C1.17944 8.70041 2.21411 6.20249 4.05584 4.36077C5.89756 2.51904 8.39548 1.48438 11.0001 1.48438C13.6047 1.48438 16.1026 2.51904 17.9443 4.36077C19.786 6.20249 20.8207 8.70041 20.8207 11.305V18.695Z" fill="#A5A5A5"/>
<path d="M11 5.41063C10.3372 5.41137 9.70173 5.67501 9.23305 6.14369C8.76438 6.61237 8.50074 7.24782 8.5 7.91063V11.1406C8.5 11.8037 8.76339 12.4396 9.23223 12.9084C9.70107 13.3772 10.337 13.6406 11 13.6406C11.663 13.6406 12.2989 13.3772 12.7678 12.9084C13.2366 12.4396 13.5 11.8037 13.5 11.1406V7.91063C13.4993 7.24782 13.2356 6.61237 12.7669 6.14369C12.2983 5.67501 11.6628 5.41137 11 5.41063ZM12.4062 11.1406C12.4062 11.5136 12.2581 11.8713 11.9944 12.135C11.7306 12.3987 11.373 12.5469 11 12.5469C10.627 12.5469 10.2694 12.3987 10.0056 12.135C9.74191 11.8713 9.59375 11.5136 9.59375 11.1406V7.91063C9.59375 7.53767 9.74191 7.17998 10.0056 6.91626C10.2694 6.65254 10.627 6.50438 11 6.50438C11.373 6.50438 11.7306 6.65254 11.9944 6.91626C12.2581 7.17998 12.4062 7.53767 12.4062 7.91063V11.1406Z" fill="#A5A5A5"/>
</svg>
