<svg width="42" height="42" viewBox="0 0 42 42" fill="none" xmlns="http://www.w3.org/2000/svg">
<g clip-path="url(#clip0_422_518)">
<path d="M33.4009 16.565H33.3419C32.5364 16.5606 31.7581 16.8566 31.1589 17.3951C30.6738 16.0528 29.4412 15.0878 27.9975 15.0878C27.1126 15.094 26.2674 15.4573 25.6544 16.0959C25.0907 14.9547 23.9598 14.1805 22.6596 14.1805H22.5968C21.8999 14.1698 21.22 14.3965 20.6687 14.8229V6.68721C20.6687 4.72116 19.138 3.12183 17.2762 3.12183C15.4164 3.12183 13.8936 4.72012 13.8926 6.68479L13.8771 22.8265L12.9635 21.717C12.1625 20.7197 10.9834 20.1004 9.70762 20.0069C8.4581 19.9214 7.22893 20.356 6.31128 21.2088L5.51644 21.8674C5.26012 22.0799 5.18699 22.4421 5.3405 22.7374L13.0684 37.592C14.4815 40.3066 17.1699 42.0002 20.0846 42.0002H28.7937V41.9926C33.2094 41.9926 36.7896 38.1609 36.7941 33.456C36.7959 31.3509 36.7879 29.782 36.7893 28.5104C36.7938 25.1082 36.7903 23.8528 36.7817 20.1046C36.7772 18.143 35.2576 16.565 33.4009 16.565ZM35.3659 28.5055C35.3645 29.7775 35.3625 31.3527 35.3604 33.4577C35.3566 37.3847 32.3922 40.5868 28.7523 40.5868H20.085C17.6991 40.5868 15.4909 39.1844 14.3224 36.9393L6.85738 22.5946L7.22582 22.2872C7.23514 22.2797 7.24411 22.2707 7.25308 22.2628C7.88681 21.6663 8.7396 21.3599 9.60792 21.4169C10.4956 21.4848 11.3145 21.9188 11.8696 22.6146L14.0323 25.2461C14.2213 25.4769 14.5353 25.5635 14.8161 25.4631C15.0969 25.3628 15.2846 25.0964 15.2846 24.7984L15.2973 6.68548C15.298 5.49944 16.195 4.53452 17.2768 4.53452C18.3587 4.53452 19.2557 5.50047 19.2557 6.68721V17.6083C19.2557 17.6462 19.2539 17.6845 19.2539 17.7231C19.2539 17.7397 19.2557 17.7566 19.2557 17.7728V22.4421C19.2557 22.8323 19.572 23.1487 19.9622 23.1487C20.3523 23.1487 20.6687 22.8323 20.6687 22.4421V17.6321C20.6687 16.4878 21.5429 15.5936 22.5968 15.5936H22.6596C23.7421 15.5936 24.6429 16.5371 24.6429 17.7238V21.9964C24.6429 22.3866 24.9592 22.7029 25.3494 22.7029C25.7396 22.7029 26.0559 22.3866 26.0559 21.9964V18.6442C26.0559 17.4572 26.9135 16.4916 28.002 16.4916C29.0842 16.4916 29.9418 17.4568 29.9418 18.6442V21.8067C29.9418 22.1969 30.2581 22.5132 30.6483 22.5132C31.0385 22.5132 31.3548 22.1969 31.3548 21.8067V20.0942C31.3548 18.9071 32.2594 17.9781 33.3419 17.9781H33.4009C34.4807 17.9781 35.3607 18.923 35.3635 20.1063C35.3721 23.8517 35.3704 25.1057 35.3659 28.5055Z" fill="#C4C4C4"/>
<path d="M11.6484 6.99207C12.0386 6.99207 12.3549 6.67573 12.3549 6.28555C12.3663 3.58953 14.5552 1.41028 17.2509 1.41028C19.9469 1.41028 22.1355 3.58953 22.1469 6.28555C22.1469 6.67573 22.4632 6.99207 22.8534 6.99207C23.2436 6.99207 23.5599 6.67573 23.5599 6.28555C23.5468 2.81021 20.7262 0 17.2509 0C13.7759 0 10.955 2.81021 10.9419 6.28555C10.9419 6.67573 11.2582 6.99207 11.6484 6.99207Z" fill="#C4C4C4"/>
</g>
<defs>
<clipPath id="clip0_422_518">
<rect width="42" height="42" fill="white"/>
</clipPath>
</defs>
</svg>
