<svg width="25" height="25" viewBox="0 0 25 25" fill="none" xmlns="http://www.w3.org/2000/svg">
<g clip-path="url(#clip0_422_237)">
<path d="M24.5102 2.04812C24.108 1.67962 23.5364 1.55682 23.0183 1.72757L1.03644 8.97371C0.437365 9.17117 0.0311146 9.70594 0.00147595 10.336C-0.0281139 10.966 0.326134 11.5366 0.903966 11.7895L6.34025 14.168C6.36676 14.291 7.92736 21.5291 7.98043 21.7752C8.04855 22.0912 8.20895 22.3727 8.54874 22.4593C8.89244 22.5468 9.13527 22.359 9.39171 22.167C9.53444 22.0601 13.4259 19.1462 13.4259 19.1462L18.1422 23.0055C18.4169 23.2304 18.7526 23.3477 19.0949 23.3477C19.2579 23.3477 19.4225 23.3211 19.5825 23.2668C20.0789 23.0985 20.4469 22.6934 20.5669 22.1832L24.9597 3.50633C25.0846 2.97532 24.9124 2.41663 24.5102 2.04812ZM9.74313 15.5309C9.74044 15.5373 9.73781 15.5445 9.73531 15.5531L8.82594 18.7302L7.8111 14.0234L14.7895 10.1462L9.91051 15.2477C9.83365 15.3281 9.77711 15.4252 9.74313 15.5309ZM10.0318 19.8534L10.4448 18.4103L10.8399 17.03L12.2554 18.1884L10.0318 19.8534ZM23.5304 3.1701L19.1376 21.847C19.1354 21.8562 19.1325 21.869 19.111 21.8763C19.0897 21.8835 19.0794 21.8753 19.072 21.8692L13.9113 17.6462C13.9112 17.6461 13.9111 17.6459 13.9109 17.6458L11.5199 15.6892L19.2017 7.65706C19.4526 7.39471 19.474 6.98841 19.2522 6.70105C19.0303 6.41365 18.6318 6.33157 18.3145 6.50794L6.93995 12.8277L1.49254 10.4443C1.47594 10.437 1.46681 10.433 1.46813 10.4049C1.46944 10.3769 1.47892 10.3738 1.4961 10.3681L23.4779 3.122C23.4886 3.11853 23.5006 3.11453 23.5183 3.13064C23.5359 3.14685 23.533 3.15916 23.5304 3.1701Z" fill="#383838"/>
</g>
<defs>
<clipPath id="clip0_422_237">
<rect width="25" height="25" fill="white"/>
</clipPath>
</defs>
</svg>
