<svg width="25" height="25" viewBox="0 0 25 25" fill="none" xmlns="http://www.w3.org/2000/svg">
<path d="M24.8895 5.34858C24.7417 5.10815 24.4713 4.97187 24.1897 4.99628L22.9432 5.10487L24.1347 2.70287C24.2766 2.41678 24.2205 2.0721 23.9953 1.84569C23.7701 1.61927 23.4257 1.56156 23.139 1.70199L19.9853 3.24647C18.0369 2.21786 15.6027 2.52318 13.9277 4.04901C12.5297 5.32245 11.7949 7.28081 11.9319 9.23374C8.27813 8.86753 5.18535 6.77617 3.35654 3.39696C3.2352 3.17279 3.00771 3.02616 2.75346 3.00814C2.49873 2.99042 2.25332 3.10331 2.10166 3.30824C0.967375 4.84057 0.887785 6.94155 1.777 8.67002C1.53188 8.6081 1.27104 8.52431 0.98178 8.42768C0.733976 8.34482 0.460783 8.3979 0.261905 8.56743C0.0630278 8.73696 -0.0325778 8.99824 0.00995159 9.2561C0.361808 11.3893 1.60576 13.0288 3.5708 13.9992C3.31494 14.0883 3.05385 14.1607 2.78838 14.216C2.52461 14.271 2.31103 14.4639 2.22973 14.7208C2.14843 14.9776 2.21201 15.2584 2.39609 15.4551C3.81118 16.9677 5.85532 17.7122 7.30728 18.0694C5.6564 19.3622 3.87431 19.5785 1.28476 19.4896C0.985002 19.4805 0.70883 19.6494 0.582804 19.9211C0.456827 20.1929 0.505705 20.5137 0.707023 20.7356C1.78652 21.9255 5.71944 23.2672 9.85382 23.3678C10.0173 23.3718 10.1841 23.3739 10.3545 23.3739C13.2573 23.3739 17.0938 22.7516 19.8476 19.9978C21.9319 17.9135 23.2356 15.5141 23.7224 12.8663C24.1156 10.7278 23.8671 9.01528 23.7477 8.19223C23.7389 8.13174 23.7295 8.06753 23.7219 8.01137L24.888 6.13198C25.0367 5.89223 25.0373 5.58901 24.8895 5.34858ZM22.2721 8.4063C22.4933 9.93091 23.1664 14.5704 18.7933 18.9435C16.2513 21.4854 12.5487 21.9419 9.89005 21.8773C7.62144 21.8221 5.59224 21.3882 4.12153 20.8934C4.71865 20.8201 5.25078 20.7072 5.75308 20.551C7.1378 20.1206 8.30762 19.3462 9.43448 18.1138C9.62232 17.9084 9.68004 17.6155 9.58429 17.3542C9.48853 17.0928 9.25514 16.9066 8.97906 16.8713C8.26817 16.7801 6.13213 16.4206 4.4501 15.2603C4.93481 15.0621 5.4023 14.814 5.84868 14.5179C6.09356 14.3554 6.22022 14.0643 6.17198 13.7744C6.12378 13.4845 5.90987 13.2499 5.62559 13.1754C4.24888 12.8145 2.58735 12.0068 1.82119 10.204C2.31044 10.2897 2.84243 10.3105 3.40981 10.1833C3.6728 10.1244 3.88354 9.92808 3.96089 9.66987C4.03828 9.41167 3.97031 9.13179 3.7831 8.93794C2.82978 7.95053 2.47329 6.52758 2.77915 5.30995C3.78081 6.77387 5.04981 8.00591 6.50372 8.9168C8.36363 10.0821 10.5344 10.7261 12.7816 10.779C13.0102 10.7838 13.2296 10.684 13.3752 10.5068C13.5207 10.3297 13.5766 10.0955 13.5269 9.87173C13.1403 8.13369 13.6917 6.28085 14.9317 5.15131C16.2178 3.97968 18.1187 3.80194 19.5541 4.71937C19.7733 4.85946 20.0498 4.87514 20.2835 4.76068L21.8236 4.00639L21.0175 5.63144C20.8977 5.87289 20.9176 6.1602 21.0695 6.38281C21.2213 6.60541 21.4811 6.729 21.75 6.70541L22.8361 6.61083L22.3358 7.41723C22.1679 7.68789 22.2027 7.92802 22.2721 8.4063Z" fill="#383838"/>
</svg>
