<svg width="35" height="27" viewBox="0 0 35 27" fill="none" xmlns="http://www.w3.org/2000/svg">
<path d="M12.6552 9.88672C10.6313 9.88672 8.98462 11.7008 8.98462 13.9305C8.98462 16.1603 10.6313 17.9743 12.6552 17.9743C14.6792 17.9743 16.3259 16.1603 16.3259 13.9305C16.3259 11.7008 14.6792 9.88672 12.6552 9.88672ZM12.6552 15.9235C11.7621 15.9235 11.0354 15.0295 11.0354 13.9305C11.0354 12.8316 11.7621 11.9375 12.6552 11.9375C13.5484 11.9375 14.2751 12.8316 14.2751 13.9305C14.2751 15.0295 13.5484 15.9235 12.6552 15.9235Z" fill="#A8A8A8"/>
<path d="M22.345 9.88672C20.321 9.88672 18.6743 11.7008 18.6743 13.9305C18.6743 16.1603 20.321 17.9743 22.345 17.9743C24.3689 17.9743 26.0156 16.1603 26.0156 13.9305C26.0156 11.7008 24.3689 9.88672 22.345 9.88672ZM22.345 15.9235C21.4518 15.9235 20.7251 15.0295 20.7251 13.9305C20.7251 12.8316 21.4518 11.9375 22.345 11.9375C23.2381 11.9375 23.9648 12.8316 23.9648 13.9305C23.9648 15.0295 23.2381 15.9235 22.345 15.9235Z" fill="#A8A8A8"/>
<path d="M34.9982 20.7855C34.974 20.352 34.3608 10.097 30.4666 3.9625C30.387 3.83706 30.2809 3.73035 30.156 3.64996C25.3408 0.549247 22.0609 0.558134 21.9237 0.557587C21.5259 0.56285 21.1834 0.794179 21.0178 1.12846L19.3636 4.29855C18.7474 4.25822 18.1253 4.2373 17.4998 4.2373C16.8744 4.2373 16.2522 4.25822 15.636 4.29855L13.9836 1.13215C13.8188 0.795956 13.4752 0.562919 13.0759 0.557655C12.9379 0.556835 9.65834 0.549589 4.84366 3.65003C4.71876 3.73049 4.61274 3.83713 4.5331 3.96257C0.638803 10.097 0.0255513 20.352 0.00135209 20.7855C-0.0138237 21.0573 0.0796919 21.324 0.261323 21.5268C0.441928 21.7284 4.73209 26.4425 10.6621 26.4425C10.6886 26.4425 10.7159 26.4423 10.7425 26.4422C11.0541 26.44 11.3477 26.2961 11.5406 26.0515L14.2758 22.5802C15.3264 22.7002 16.4054 22.7627 17.4998 22.7627C18.5942 22.7627 19.6733 22.7002 20.7237 22.5802L23.459 26.0515C23.6518 26.2961 23.9454 26.44 24.2571 26.4422C24.2841 26.4424 24.3106 26.4425 24.3375 26.4425C30.2669 26.4425 34.5578 21.7284 34.7382 21.5268C34.9198 21.324 35.0133 21.0573 34.9982 20.7855ZM24.7546 24.3821L23.0445 22.2118C25.6476 21.6763 27.9841 20.765 29.8077 19.5415C30.2781 19.226 30.4036 18.5889 30.088 18.1187C29.7726 17.6484 29.1354 17.5227 28.6653 17.8384C25.9433 19.6647 21.8736 20.7119 17.4998 20.7119C13.1261 20.7119 9.05644 19.6647 6.3343 17.8386C5.86392 17.5232 5.22702 17.6487 4.91154 18.119C4.59606 18.5893 4.72157 19.2263 5.19188 19.5417C7.01571 20.7651 9.35209 21.6764 11.9551 22.2119L10.2451 24.382C6.23019 24.1957 3.03507 21.388 2.08098 20.4563C2.24026 18.4694 3.06672 10.2749 6.14583 5.25183C9.16944 3.34323 11.4512 2.81242 12.4703 2.6649L13.4432 4.52913C11.1558 4.86313 9.01283 5.47693 7.18743 6.33635C6.67507 6.57752 6.4553 7.18845 6.69647 7.70087C6.93771 8.21316 7.54864 8.43286 8.06092 8.19183C10.6686 6.96416 14.0207 6.28809 17.4998 6.28809C20.9791 6.28809 24.3313 6.9643 26.9388 8.1921C27.0799 8.25855 27.2285 8.29006 27.3749 8.29006C27.7596 8.29006 28.1285 8.07233 28.3033 7.70121C28.5445 7.18893 28.3247 6.57793 27.8123 6.33669C25.9869 5.47721 23.8439 4.86327 21.5563 4.52927L22.5292 2.66504C23.5482 2.81256 25.83 3.34337 28.8538 5.25196C31.9294 10.2698 32.7586 18.4728 32.9185 20.4581C31.9669 21.3918 28.786 24.1972 24.7546 24.3821Z" fill="#A8A8A8"/>
</svg>
