<svg width="35" height="31" viewBox="0 0 35 31" fill="none" xmlns="http://www.w3.org/2000/svg">
<path d="M34.8454 5.48798C34.6384 5.15137 34.2598 4.96058 33.8656 4.99476L32.1204 5.14679L33.7886 1.78398C33.9872 1.38346 33.9088 0.900915 33.5935 0.583932C33.2781 0.266949 32.796 0.186148 32.3945 0.38275L27.9794 2.54503C25.2517 1.10497 21.8437 1.53242 19.4987 3.66859C17.5416 5.4514 16.5128 8.1931 16.7047 10.9272C11.5894 10.4145 7.25949 7.4866 4.69916 2.75571C4.52928 2.44188 4.2108 2.23659 3.85485 2.21137C3.49822 2.18655 3.15464 2.3446 2.94232 2.6315C1.35433 4.77676 1.2429 7.71814 2.48779 10.138C2.14463 10.0513 1.77945 9.93401 1.37449 9.79873C1.02757 9.68272 0.645096 9.75703 0.366667 9.99437C0.088239 10.2317 -0.0456089 10.5975 0.0139322 10.9585C0.506531 13.945 2.24806 16.2402 4.99912 17.5988C4.64091 17.7236 4.2754 17.8249 3.90373 17.9023C3.53445 17.9793 3.23544 18.2495 3.12162 18.6091C3.00781 18.9687 3.09681 19.3617 3.35453 19.6372C5.33565 21.7548 8.19746 22.7971 10.2302 23.2971C7.91896 25.107 5.42404 25.4099 1.79866 25.2854C1.379 25.2727 0.992362 25.5091 0.815926 25.8895C0.639559 26.27 0.707986 26.7191 0.989833 27.0298C2.50112 28.6957 8.00721 30.5741 13.7953 30.7149C14.0243 30.7204 14.2578 30.7234 14.4962 30.7234C18.5603 30.7234 23.9314 29.8522 27.7866 25.9969C30.7047 23.0789 32.5299 19.7197 33.2114 16.0128C33.7618 13.0189 33.4139 10.6214 33.2468 9.4691C33.2345 9.3844 33.2213 9.29451 33.2107 9.21589L34.8432 6.58474C35.0514 6.24909 35.0523 5.82458 34.8454 5.48798ZM31.1809 9.76879C31.4906 11.9032 32.433 18.3985 26.3106 24.5208C22.7518 28.0796 17.5682 28.7186 13.8461 28.6282C10.67 28.5509 7.82913 27.9435 5.77015 27.2507C6.60611 27.1482 7.3511 26.99 8.05431 26.7714C9.99292 26.1688 11.6307 25.0846 13.2083 23.3593C13.4713 23.0717 13.5521 22.6617 13.418 22.2958C13.2839 21.9299 12.9572 21.6692 12.5707 21.6197C11.5754 21.4922 8.58499 20.9888 6.23014 19.3644C6.90874 19.0869 7.56322 18.7395 8.18816 18.325C8.53098 18.0975 8.70831 17.6899 8.64077 17.2841C8.5733 16.8783 8.27381 16.5498 7.87582 16.4455C5.94843 15.9402 3.62229 14.8095 2.54966 12.2855C3.23462 12.4055 3.9794 12.4346 4.77374 12.2565C5.14192 12.1741 5.43696 11.8993 5.54524 11.5378C5.65359 11.1763 5.55844 10.7845 5.29635 10.5131C3.96169 9.13072 3.4626 7.13858 3.89081 5.4339C5.29313 7.48339 7.06973 9.20824 9.1052 10.4835C11.7091 12.1149 14.7482 13.0165 17.8942 13.0905C18.2143 13.0973 18.5214 12.9576 18.7252 12.7095C18.9289 12.4616 19.0073 12.1337 18.9376 11.8204C18.3964 9.38713 19.1683 6.79316 20.9044 5.2118C22.705 3.57152 25.3662 3.32269 27.3757 4.60709C27.6826 4.80322 28.0697 4.82516 28.3969 4.66493L30.553 3.60891L29.4245 5.88398C29.2568 6.22202 29.2846 6.62425 29.4973 6.9359C29.7099 7.24755 30.0736 7.42057 30.4501 7.38755L31.9705 7.25514L31.2701 8.3841C31.035 8.76301 31.0837 9.0992 31.1809 9.76879Z" fill="#C4C4C4"/>
</svg>
