<svg width="35" height="31" viewBox="0 0 35 31" fill="none" xmlns="http://www.w3.org/2000/svg">
<path d="M34.3144 0.867612C33.7513 0.351704 32.951 0.17978 32.2257 0.418833L1.45111 10.5634C0.612408 10.8399 0.0436581 11.5885 0.00216398 12.4706C-0.0392618 13.3527 0.456685 14.1515 1.26565 14.5055L8.87644 17.8354C8.91356 18.0077 11.0984 28.141 11.1727 28.4855C11.2681 28.9279 11.4926 29.322 11.9683 29.4432C12.4495 29.5658 12.7895 29.3028 13.1485 29.034C13.3483 28.8844 18.7963 24.8049 18.7963 24.8049L25.3991 30.208C25.7837 30.5229 26.2537 30.6871 26.733 30.6871C26.9612 30.687 27.1916 30.6498 27.4156 30.5738C28.1106 30.3382 28.6257 29.771 28.7937 29.0567L34.9437 2.9091C35.1185 2.16569 34.8775 1.38352 34.3144 0.867612ZM13.6405 19.7435C13.6367 19.7524 13.633 19.7625 13.6295 19.7745L12.3564 24.2225L10.9356 17.633L20.7053 12.2049L13.8748 19.347C13.7672 19.4595 13.6881 19.5956 13.6405 19.7435ZM14.0445 25.7951L14.6228 23.7747L15.1759 21.8423L17.1577 23.464L14.0445 25.7951ZM32.9427 2.43837L26.7928 28.586C26.7897 28.599 26.7856 28.6169 26.7555 28.6271C26.7257 28.6372 26.7112 28.6256 26.7009 28.6171L19.476 22.7049C19.4758 22.7047 19.4756 22.7045 19.4754 22.7044L16.1279 19.9651L26.8824 8.72012C27.2337 8.35283 27.2637 7.78401 26.9532 7.38171C26.6425 6.97935 26.0845 6.86444 25.6404 7.11135L9.71603 15.959L2.08965 12.6222C2.06641 12.6121 2.05363 12.6064 2.05547 12.5671C2.05732 12.5279 2.07058 12.5235 2.09464 12.5156L32.8692 2.37104C32.8841 2.36619 32.9009 2.36058 32.9257 2.38314C32.9504 2.40583 32.9463 2.42306 32.9427 2.43837Z" fill="#C4C4C4"/>
</svg>
